<svg width="488" height="488" viewBox="0 0 488 488" fill="none" xmlns="http://www.w3.org/2000/svg">
<rect width="488" height="488" fill="#5CE0A8" fill-opacity="0.0392157"/>
<g filter="url(#filter0_dd_0_1)">
<rect x="4" width="480" height="480" rx="90" fill="#5CE0A8"/>
<rect x="4.5" y="0.5" width="479" height="479" rx="89.5" stroke="black"/>
</g>
<path d="M265.083 306.5V167C265.083 162.737 266.756 159.089 270.102 156.053C273.447 153.018 277.469 151.5 282.167 151.5H418.833C423.531 151.5 427.553 153.018 430.898 156.053C434.244 159.089 435.917 162.737 435.917 167V260C435.917 264.263 434.244 267.911 430.898 270.947C427.553 273.982 423.531 275.5 418.833 275.5H299.25L265.083 306.5ZM291.99 260H418.833V167H282.167V268.719L291.99 260Z" fill="#1D1B20"/>
<path d="M118.8 256.125L150 226.875L181.2 256.125L193.333 244.75L162.133 215.5L193.333 186.25L181.2 174.875L150 204.125L118.8 174.875L106.667 186.25L137.867 215.5L106.667 244.75L118.8 256.125ZM150 296.75C138.011 296.75 126.744 294.617 116.2 290.352C105.656 286.086 96.4833 280.297 88.6833 272.984C80.8833 265.672 74.7083 257.073 70.1583 247.188C65.6083 237.302 63.3333 226.74 63.3333 215.5C63.3333 204.26 65.6083 193.698 70.1583 183.812C74.7083 173.927 80.8833 165.328 88.6833 158.016C96.4833 150.703 105.656 144.914 116.2 140.648C126.744 136.383 138.011 134.25 150 134.25C161.989 134.25 173.256 136.383 183.8 140.648C194.344 144.914 203.517 150.703 211.317 158.016C219.117 165.328 225.292 173.927 229.842 183.812C234.392 193.698 236.667 204.26 236.667 215.5C236.667 226.74 234.392 237.302 229.842 247.188C225.292 257.073 219.117 265.672 211.317 272.984C203.517 280.297 194.344 286.086 183.8 290.352C173.256 294.617 161.989 296.75 150 296.75ZM150 280.5C169.356 280.5 185.75 274.203 199.183 261.609C212.617 249.016 219.333 233.646 219.333 215.5C219.333 197.354 212.617 181.984 199.183 169.391C185.75 156.797 169.356 150.5 150 150.5C130.644 150.5 114.25 156.797 100.817 169.391C87.3833 181.984 80.6667 197.354 80.6667 215.5C80.6667 233.646 87.3833 249.016 100.817 261.609C114.25 274.203 130.644 280.5 150 280.5Z" fill="#1D1B20"/>
<path d="M196.25 375.183L179.75 360.017L185.525 354.708L196.25 364.567L223.475 339.542L229.25 344.85L196.25 375.183Z" fill="#1D1B20"/>
<path d="M23.7333 57L19.4167 52.8L36.6833 36L19.4167 19.2L23.7333 15L41 31.8L58.2667 15L62.5833 19.2L45.3167 36L62.5833 52.8L58.2667 57L41 40.2L23.7333 57Z" fill="#1D1B20"/>
<path d="M270.399 373.243L294.722 354.678L288.752 349.894L270.51 363.819L232.072 333.021L225.991 337.663L270.399 373.243Z" fill="#1D1B20"/>
<defs>
<filter id="filter0_dd_0_1" x="0" y="0" width="488" height="488" filterUnits="userSpaceOnUse" color-interpolation-filters="sRGB">
<feFlood flood-opacity="0" result="BackgroundImageFix"/>
<feColorMatrix in="SourceAlpha" type="matrix" values="0 0 0 0 0 0 0 0 0 0 0 0 0 0 0 0 0 0 127 0" result="hardAlpha"/>
<feOffset dy="4"/>
<feGaussianBlur stdDeviation="2"/>
<feComposite in2="hardAlpha" operator="out"/>
<feColorMatrix type="matrix" values="0 0 0 0 0 0 0 0 0 0 0 0 0 0 0 0 0 0 0.25 0"/>
<feBlend mode="normal" in2="BackgroundImageFix" result="effect1_dropShadow_0_1"/>
<feColorMatrix in="SourceAlpha" type="matrix" values="0 0 0 0 0 0 0 0 0 0 0 0 0 0 0 0 0 0 127 0" result="hardAlpha"/>
<feOffset dy="4"/>
<feGaussianBlur stdDeviation="2"/>
<feComposite in2="hardAlpha" operator="out"/>
<feColorMatrix type="matrix" values="0 0 0 0 0 0 0 0 0 0 0 0 0 0 0 0 0 0 0.25 0"/>
<feBlend mode="normal" in2="effect1_dropShadow_0_1" result="effect2_dropShadow_0_1"/>
<feBlend mode="normal" in="SourceGraphic" in2="effect2_dropShadow_0_1" result="shape"/>
</filter>
</defs>
</svg>
